<svg id="svg" version="1.1" xmlns="http://www.w3.org/2000/svg" xmlns:xlink="http://www.w3.org/1999/xlink" width="400" height="404.5859872611465" viewBox="0, 0, 400,404.5859872611465"><g id="svgg"><path id="path0" d="M0.000 202.293 L 0.000 404.586 200.000 404.586 L 400.000 404.586 400.000 202.293 L 400.000 0.000 200.000 0.000 L 0.000 0.000 0.000 202.293 M56.051 88.653 C 56.051 90.861,46.599 90.735,202.038 90.585 L 345.732 90.446 345.892 88.790 C 346.049 87.165,346.100 87.134,348.584 87.134 L 351.116 87.134 350.972 92.866 L 350.828 98.599 348.408 98.754 L 345.987 98.909 345.987 97.074 L 345.987 95.238 342.803 95.390 L 339.618 95.541 339.489 204.459 L 339.361 313.376 332.659 313.376 L 325.957 313.376 326.307 304.331 C 327.265 279.574,330.878 254.548,336.367 234.650 C 338.171 228.109,338.235 228.895,334.825 215.796 C 326.122 182.372,320.274 141.516,319.200 106.624 L 318.851 95.287 317.320 95.287 L 315.790 95.287 316.069 107.643 C 316.692 135.226,321.346 171.115,328.467 203.237 C 331.527 217.041,331.363 217.086,325.583 204.031 C 309.117 166.839,300.703 132.863,299.473 98.599 C 299.373 95.809,299.257 95.526,298.158 95.371 C 296.087 95.078,295.977 95.698,296.534 104.507 C 298.675 138.379,307.812 172.865,323.778 207.343 C 328.249 216.999,328.321 217.469,324.502 212.099 C 298.664 175.771,282.677 133.929,281.150 98.639 C 280.950 94.031,279.745 94.196,279.745 98.831 C 279.745 111.136,283.953 132.225,289.731 148.878 C 296.135 167.336,309.275 193.247,319.274 207.134 C 325.231 215.407,318.130 207.999,309.505 196.943 C 284.367 164.717,267.516 125.689,267.516 99.694 C 267.516 96.117,267.175 95.287,265.708 95.287 C 264.043 95.287,264.020 95.407,264.509 101.533 C 267.181 135.064,283.823 170.970,312.626 205.350 C 316.030 209.414,319.209 213.064,319.690 213.461 C 321.786 215.192,321.644 216.228,319.539 214.561 C 284.249 186.610,258.463 141.292,255.350 101.748 C 254.863 95.559,254.713 94.951,253.809 95.510 C 252.668 96.215,254.698 112.790,257.121 122.548 C 264.880 153.793,283.977 183.969,312.840 210.591 C 318.366 215.688,318.469 216.147,313.241 212.367 C 275.638 185.183,249.762 143.794,244.359 102.192 C 243.924 98.843,243.383 95.918,243.157 95.692 C 242.931 95.466,223.850 95.339,200.755 95.411 L 158.765 95.541 157.670 103.185 C 151.655 145.172,127.715 183.511,89.910 211.696 C 85.268 215.157,83.002 216.184,86.115 213.416 C 124.085 179.650,145.862 140.248,148.552 100.447 C 148.984 94.049,147.792 92.944,147.153 99.150 C 145.590 114.307,144.665 119.479,141.828 128.917 C 133.775 155.707,116.155 183.088,92.198 206.041 C 79.403 218.299,78.256 218.662,87.869 207.411 C 118.205 171.906,135.284 135.185,137.825 100.000 L 138.166 95.287 136.668 95.287 C 135.056 95.287,134.522 96.949,134.522 101.971 C 134.522 126.648,116.449 167.167,91.331 198.800 C 81.630 211.018,78.067 214.436,83.472 206.340 C 102.361 178.046,115.156 147.690,120.188 119.236 C 122.098 108.434,123.051 95.798,121.983 95.439 C 121.356 95.229,120.764 98.610,120.764 102.395 C 120.764 116.846,113.133 145.776,103.821 166.624 C 96.853 182.224,82.274 207.179,75.690 214.777 L 74.365 216.306 75.091 214.522 C 75.490 213.541,77.239 209.758,78.978 206.115 C 93.942 174.759,104.413 134.365,105.824 102.548 L 106.146 95.287 104.585 95.287 L 103.025 95.287 102.708 100.255 C 100.198 139.550,90.396 176.693,73.597 210.573 C 72.241 213.309,70.926 214.614,71.544 212.611 C 77.948 191.879,85.406 137.383,86.329 104.586 L 86.590 95.287 85.138 95.287 C 83.254 95.287,83.077 95.998,83.048 103.694 C 82.930 134.079,76.556 179.807,67.469 215.464 L 64.177 228.380 65.515 233.298 C 71.377 254.853,75.182 281.315,76.094 306.879 L 76.325 313.376 69.501 313.376 L 62.678 313.376 62.549 204.459 L 62.420 95.541 59.363 95.541 L 56.306 95.541 56.146 97.197 C 55.992 98.793,55.904 98.854,53.726 98.854 L 51.465 98.854 51.465 92.994 L 51.465 87.134 53.758 87.134 C 55.963 87.134,56.051 87.192,56.051 88.653 M248.881 209.208 C 250.445 210.773,249.638 212.484,247.334 212.484 C 245.706 212.484,245.605 212.383,245.605 210.743 C 245.605 208.456,247.323 207.651,248.881 209.208 M127.549 210.505 C 130.207 211.865,131.459 216.481,129.863 219.037 C 129.391 219.792,129.499 220.267,130.429 221.524 C 131.862 223.463,132.267 226.883,131.378 229.554 C 130.300 232.796,128.514 233.419,120.764 233.256 L 114.395 233.121 114.257 222.178 C 114.181 216.160,114.231 210.943,114.368 210.586 C 114.691 209.745,125.928 209.676,127.549 210.505 M216.782 210.941 C 220.013 212.509,220.338 213.373,220.549 220.967 C 220.858 232.104,219.906 233.121,209.172 233.121 L 202.038 233.121 201.894 222.675 C 201.700 208.615,201.013 209.936,208.511 209.936 C 213.641 209.936,215.067 210.110,216.782 210.941 M117.028 212.824 C 116.841 213.011,116.688 214.501,116.688 216.136 L 116.688 219.108 121.766 219.108 C 127.303 219.108,127.898 218.790,127.898 215.830 C 127.898 213.112,119.157 210.695,117.028 212.824 M204.841 221.656 L 204.841 230.828 208.790 230.825 C 216.930 230.819,218.089 229.676,218.089 221.656 C 218.089 213.636,216.930 212.493,208.790 212.487 L 204.841 212.484 204.841 221.656 M153.742 217.714 C 154.977 218.949,155.150 219.513,155.155 222.300 L 155.159 225.478 148.408 225.620 L 141.656 225.762 141.656 227.179 C 141.656 230.893,150.055 232.446,152.440 229.172 C 154.205 226.749,155.993 227.711,154.928 230.510 C 153.481 234.316,141.792 234.539,139.857 230.798 C 138.883 228.915,138.857 220.391,139.819 218.655 C 141.544 215.543,150.938 214.908,153.742 217.714 M166.424 216.773 C 166.661 217.392,166.967 217.384,168.553 216.722 C 171.249 215.595,176.977 215.986,178.383 217.392 C 181.134 220.143,181.267 233.815,178.538 233.293 C 177.675 233.128,177.554 232.453,177.325 226.505 C 177.039 219.103,176.759 218.620,172.739 218.609 C 167.117 218.594,166.681 219.217,166.495 227.516 C 166.378 232.739,166.300 233.121,165.350 233.121 C 164.354 233.121,163.448 218.934,164.301 216.709 C 164.640 215.827,166.077 215.870,166.424 216.773 M231.816 217.013 C 232.320 217.953,232.376 217.952,234.345 216.977 C 236.899 215.714,239.745 215.879,239.745 217.290 C 239.745 218.077,239.134 218.409,236.677 218.955 C 232.544 219.873,232.164 220.547,231.847 227.516 C 231.612 232.696,231.515 233.121,230.573 233.121 C 229.577 233.121,228.671 218.934,229.524 216.709 C 229.898 215.735,231.227 215.911,231.816 217.013 M248.662 224.749 L 248.662 233.447 247.516 233.284 C 246.391 233.124,246.367 232.976,246.228 225.244 C 246.072 216.518,246.143 216.051,247.627 216.051 C 248.627 216.051,248.662 216.346,248.662 224.749 M271.361 217.302 C 272.049 217.990,272.611 218.914,272.611 219.356 C 272.611 220.675,271.115 220.864,270.015 219.683 C 268.039 217.562,259.873 218.386,259.873 220.707 C 259.873 222.721,260.884 223.185,265.274 223.185 C 271.468 223.185,273.077 224.246,273.105 228.351 C 273.133 232.473,272.202 233.090,265.646 233.290 C 259.491 233.479,257.325 232.637,257.325 230.057 C 257.325 228.240,258.190 228.060,259.922 229.518 C 262.792 231.932,270.573 231.228,270.573 228.554 C 270.573 226.283,269.383 225.732,264.479 225.732 C 258.553 225.732,257.580 225.050,257.580 220.892 C 257.580 216.641,258.491 216.051,265.048 216.051 C 269.743 216.051,270.201 216.142,271.361 217.302 M294.800 217.302 C 295.488 217.990,296.051 218.914,296.051 219.356 C 296.051 220.675,294.555 220.864,293.455 219.683 C 291.399 217.477,283.312 218.373,283.312 220.808 C 283.312 222.798,284.248 223.185,289.058 223.185 C 295.682 223.185,298.354 226.392,295.817 231.298 C 293.869 235.064,280.255 233.850,280.255 229.911 C 280.255 228.380,281.869 228.129,283.109 229.466 C 285.537 232.084,294.031 231.230,294.005 228.371 C 293.987 226.369,293.179 226.022,287.880 225.747 C 281.780 225.429,280.764 224.725,280.764 220.812 C 280.764 216.907,282.139 216.051,288.408 216.051 C 293.188 216.051,293.638 216.139,294.800 217.302 M142.697 219.596 C 140.187 222.106,141.316 222.930,147.261 222.930 L 152.611 222.930 152.504 221.447 C 152.296 218.557,145.095 217.198,142.697 219.596 M116.902 222.853 C 116.757 223.231,116.706 225.123,116.790 227.057 L 116.943 230.573 122.208 230.573 C 128.329 230.573,128.917 230.192,128.917 226.224 C 128.917 222.646,128.112 222.166,122.109 222.166 C 118.430 222.166,117.098 222.342,116.902 222.853 M85.137 245.976 C 104.129 265.786,115.582 290.073,115.659 310.701 L 115.669 313.376 112.941 313.376 L 110.213 313.376 109.918 308.662 C 108.679 288.899,98.140 265.080,81.708 244.908 C 79.227 241.862,76.742 238.767,76.186 238.029 C 74.375 235.628,80.026 240.645,85.137 245.976 M324.628 239.873 C 305.935 260.804,293.625 286.957,292.128 308.917 L 291.824 313.376 289.097 313.376 L 286.369 313.376 286.369 309.605 C 286.369 289.313,300.167 261.766,319.578 243.305 C 326.569 236.656,328.939 235.045,324.628 239.873 M76.699 244.574 C 89.705 264.244,98.288 288.092,99.214 307.134 L 99.518 313.376 94.932 313.376 L 90.346 313.376 90.000 306.895 C 88.881 285.959,83.486 264.722,73.697 242.720 C 70.644 235.857,71.136 236.161,76.699 244.574 M326.720 246.912 C 318.001 267.178,313.111 287.292,312.017 307.389 L 311.691 313.376 307.104 313.376 L 302.518 313.376 302.840 307.013 C 303.899 286.135,314.231 259.567,329.426 238.656 C 330.801 236.765,329.890 239.543,326.720 246.912 M71.464 242.420 C 81.659 264.820,88.150 291.082,88.152 309.936 L 88.153 313.376 83.138 313.376 L 78.123 313.376 77.792 303.567 C 77.096 282.912,72.777 251.366,69.002 239.363 C 68.225 236.894,69.890 238.960,71.464 242.420 M333.248 238.606 C 333.248 238.681,332.579 241.719,331.761 245.358 C 327.470 264.451,324.878 284.517,324.242 303.567 L 323.915 313.376 318.822 313.376 L 313.728 313.376 314.069 306.638 C 315.009 288.066,320.315 266.385,328.506 247.643 C 330.037 244.140,331.524 240.643,331.810 239.873 C 332.213 238.783,333.248 237.872,333.248 238.606 M83.822 241.960 C 104.455 257.409,122.774 290.195,122.800 311.720 L 122.803 313.376 119.820 313.376 L 116.838 313.376 116.536 308.662 C 115.122 286.588,104.529 264.913,85.615 245.391 C 78.958 238.519,78.784 238.188,83.822 241.960 M317.138 244.713 C 297.757 264.525,286.928 286.416,285.503 308.662 L 285.201 313.376 282.218 313.376 L 279.236 313.376 279.238 311.465 C 279.251 297.910,288.037 276.105,299.610 260.902 C 304.682 254.240,320.575 238.981,322.443 238.981 C 322.610 238.981,320.223 241.561,317.138 244.713 M78.524 243.694 C 95.211 263.232,106.737 288.455,107.864 307.898 L 108.181 313.376 104.384 313.376 L 100.586 313.376 100.005 305.860 C 98.499 286.410,90.476 264.125,78.173 245.223 C 75.046 240.419,75.190 239.791,78.524 243.694 M323.994 245.223 C 310.084 267.397,301.774 291.678,301.672 310.446 L 301.656 313.376 297.758 313.376 L 293.859 313.376 294.165 308.153 C 295.287 289.010,304.984 267.117,321.474 246.497 C 326.714 239.943,327.581 239.505,323.994 245.223 M153.555 253.948 C 156.874 255.335,156.453 258.678,152.478 262.497 C 149.566 265.294,146.615 267.516,145.812 267.516 C 144.845 267.516,145.010 255.589,145.987 254.777 C 146.408 254.428,146.765 254.343,146.782 254.587 C 146.799 254.832,146.786 257.397,146.753 260.288 C 146.686 266.252,146.608 266.202,150.635 262.734 C 156.833 257.395,155.201 254.099,146.369 254.122 C 141.932 254.133,140.241 253.632,142.803 253.066 C 144.819 252.620,151.733 253.187,153.555 253.948 M195.075 253.552 C 195.786 254.051,196.176 254.776,196.080 255.423 C 195.860 256.910,194.762 257.112,194.562 255.703 C 193.993 251.709,190.079 257.227,190.069 262.038 C 190.064 264.376,191.258 266.497,192.578 266.497 C 193.786 266.497,196.071 265.273,197.580 263.818 C 198.690 262.747,199.236 262.474,199.236 262.989 C 199.236 265.071,194.517 267.796,191.795 267.285 C 188.770 266.718,187.770 264.407,188.748 260.251 C 190.122 254.416,192.585 251.808,195.075 253.552 M257.834 255.851 C 257.834 258.733,257.420 258.556,261.722 257.508 C 262.734 257.261,263.005 257.355,262.827 257.890 C 262.697 258.280,261.504 258.799,260.175 259.043 L 257.759 259.487 258.111 263.247 C 258.407 266.398,258.341 267.006,257.703 267.006 C 256.858 267.006,256.306 264.950,256.306 261.802 L 256.306 259.783 254.320 260.119 C 253.160 260.315,252.202 260.241,252.017 259.941 C 251.832 259.641,252.657 259.285,254.003 259.083 L 256.306 258.738 256.306 256.333 C 256.306 255.010,256.459 253.775,256.645 253.588 C 257.478 252.756,257.834 253.434,257.834 255.851 M174.593 256.561 C 174.754 256.981,174.724 257.726,174.526 258.217 C 174.208 259.003,174.112 258.969,173.711 257.929 C 172.918 255.869,170.553 259.216,169.895 263.329 C 169.416 266.326,170.387 266.507,173.030 263.913 C 175.810 261.185,176.553 261.579,173.987 264.420 C 169.744 269.117,166.828 266.999,168.953 260.764 C 170.296 256.820,173.715 254.273,174.593 256.561 M227.077 256.561 C 227.238 256.981,227.208 257.726,227.010 258.217 C 226.692 259.003,226.596 258.969,226.195 257.929 C 225.402 255.869,223.037 259.216,222.379 263.329 C 221.900 266.326,222.871 266.507,225.515 263.913 C 228.294 261.185,229.038 261.579,226.471 264.420 C 222.228 269.117,219.312 266.999,221.437 260.764 C 222.781 256.820,226.199 254.273,227.077 256.561 M164.799 256.615 C 166.668 257.332,164.985 259.508,161.690 260.635 C 158.967 261.566,158.832 265.987,161.526 265.987 C 162.297 265.987,165.031 263.425,165.357 262.398 C 165.709 261.290,166.624 261.037,166.624 262.047 C 166.624 264.827,161.725 268.008,159.535 266.650 C 155.145 263.927,159.957 254.757,164.799 256.615 M237.295 257.139 C 237.787 258.422,236.798 259.537,234.367 260.441 C 231.624 261.461,230.857 262.884,232.060 264.721 C 233.363 266.709,235.533 265.724,237.804 262.112 C 238.377 261.202,238.413 261.215,238.441 262.344 C 238.486 264.132,235.395 267.006,233.427 267.006 C 229.066 267.006,228.613 260.561,232.745 257.311 C 234.314 256.077,236.850 255.981,237.295 257.139 M212.203 259.994 L 212.562 263.173 213.924 260.376 C 215.297 257.558,216.787 256.569,217.638 257.912 C 218.460 259.208,218.189 267.516,217.325 267.516 C 216.702 267.516,216.561 266.663,216.561 262.900 C 216.561 257.537,216.177 257.463,214.221 262.449 C 211.981 268.157,211.195 267.898,210.664 261.274 C 210.209 255.611,211.578 254.472,212.203 259.994 M245.029 257.606 C 251.991 260.030,252.909 263.702,246.809 264.719 C 243.432 265.283,243.459 265.253,243.648 268.155 C 243.785 270.269,243.662 270.828,243.057 270.828 C 242.495 270.828,242.252 270.123,242.139 268.153 C 242.054 266.682,241.768 265.478,241.502 265.478 C 241.236 265.478,241.019 265.134,241.019 264.713 C 241.019 264.293,241.248 263.949,241.529 263.949 C 242.396 263.949,242.156 258.357,241.274 258.019 C 238.295 256.876,241.820 256.488,245.029 257.606 M161.021 258.597 C 160.364 259.296,159.935 259.977,160.068 260.110 C 160.446 260.489,163.738 258.672,163.961 257.962 C 164.315 256.835,162.258 257.280,161.021 258.597 M180.060 259.597 C 177.538 264.109,179.476 267.959,182.664 264.771 C 184.341 263.094,184.285 262.114,182.420 260.477 C 180.650 258.924,180.499 258.344,181.866 258.344 C 183.073 258.344,185.478 261.117,185.478 262.510 C 185.478 265.788,179.374 268.395,177.607 265.872 C 176.200 263.863,178.303 257.325,180.357 257.325 C 181.270 257.325,181.251 257.465,180.060 259.597 M203.405 258.726 C 200.230 263.192,201.729 268.233,205.254 264.948 C 206.726 263.577,206.666 261.857,205.096 260.382 C 203.618 258.994,203.478 258.344,204.658 258.344 C 206.207 258.344,208.536 261.320,208.179 262.845 C 207.322 266.514,202.203 268.388,200.429 265.681 C 198.955 263.432,201.096 257.325,203.359 257.325 C 204.397 257.325,204.397 257.330,203.405 258.726 M233.092 258.679 C 232.402 259.423,231.926 260.121,232.034 260.229 C 232.441 260.636,235.924 258.636,235.924 257.995 C 235.924 256.879,234.423 257.242,233.092 258.679 M243.668 261.014 C 243.833 263.880,244.402 264.362,246.884 263.739 C 250.246 262.895,250.116 260.565,246.629 259.170 C 243.616 257.964,243.496 258.039,243.668 261.014 " stroke="none" fill="#000000" fill-rule="evenodd"></path></g></svg>